<?xml version="1.0" encoding="UTF-8" standalone="no"?>
<svg
   width="44.808701"
   height="44.528301"
   viewBox="0 0 44.808701 44.528301"
   version="1.1"
   id="svg22"
   sodipodi:docname="logo-apeperia.svg"
   inkscape:version="1.2.2 (b0a8486541, 2022-12-01)"
   xmlns:inkscape="http://www.inkscape.org/namespaces/inkscape"
   xmlns:sodipodi="http://sodipodi.sourceforge.net/DTD/sodipodi-0.dtd"
   xmlns="http://www.w3.org/2000/svg"
   xmlns:svg="http://www.w3.org/2000/svg">
  <sodipodi:namedview
     id="namedview24"
     pagecolor="#ffffff"
     bordercolor="#000000"
     borderopacity="0.25"
     inkscape:showpageshadow="2"
     inkscape:pageopacity="0.0"
     inkscape:pagecheckerboard="0"
     inkscape:deskcolor="#d1d1d1"
     showgrid="false"
     inkscape:zoom="5.902439"
     inkscape:cx="57.857438"
     inkscape:cy="17.450413"
     inkscape:window-width="1920"
     inkscape:window-height="1009"
     inkscape:window-x="-8"
     inkscape:window-y="-8"
     inkscape:window-maximized="1"
     inkscape:current-layer="Logo do Apeperia" />
  <title
     id="title2">Logo do Apeperia</title>
  <desc
     id="desc4">Created using Figma</desc>
  <g
     id="Canvas"
     transform="translate(-2230,988.755)">
    <g
       id="Logo do Apeperia">
      <g
         id="Oval 1">
        <path
           id="use6"
           style="fill:#b72e2e"
           d="M 2252.4043 -988.755 C 2240.0307 -988.755 2230 -978.78752 2230 -966.49133 C 2230 -954.19524 2240.0307 -944.22766 2252.4043 -944.22766 C 2264.7779 -944.22766 2274.8086 -954.19524 2274.8086 -966.49133 C 2274.8086 -978.78752 2264.7779 -988.755 2252.4043 -988.755 z M 2251.3457 -977.96008 C 2254.2591 -977.96008 2256.6217 -977.24273 2258.4336 -975.80773 C 2260.2599 -974.38724 2261.1738 -972.35794 2261.1738 -969.71984 L 2261.1738 -960.00109 L 2261.1738 -958.97961 C 2261.1888 -958.66071 2261.2187 -958.35545 2261.2617 -958.06555 L 2263.1953 -957.80578 L 2263.1953 -953.99914 L 2255.8691 -953.99914 C 2255.6951 -954.39054 2255.5425 -954.79061 2255.4121 -955.19641 C 2255.2816 -955.61681 2255.1799 -956.03577 2255.1074 -956.45617 C 2254.3537 -955.58647 2253.4328 -954.88505 2252.3457 -954.34875 C 2251.2731 -953.81245 2250.0419 -953.54406 2248.6504 -953.54406 C 2246.3457 -953.54406 2244.5109 -954.1666 2243.1484 -955.4132 C 2241.8004 -956.6742 2241.127 -958.38436 2241.127 -960.54406 C 2241.127 -962.74736 2242.011 -964.45034 2243.7793 -965.65344 C 2245.5477 -966.85654 2248.1417 -967.45812 2251.5625 -967.45812 L 2254.8027 -967.45812 L 2254.8027 -969.76281 C 2254.8027 -970.89341 2254.4765 -971.77037 2253.8242 -972.39367 C 2253.1719 -973.01697 2252.2091 -973.32922 2250.9336 -973.32922 C 2250.2088 -973.32922 2249.5633 -973.2415 2248.998 -973.0675 C 2248.4327 -972.9081 2247.9768 -972.71346 2247.6289 -972.48156 L 2247.2148 -969.95812 L 2242.4316 -969.95812 L 2242.4531 -975.17687 C 2243.6127 -975.95967 2244.9386 -976.61909 2246.4316 -977.15539 C 2247.9391 -977.69169 2249.5773 -977.96008 2251.3457 -977.96008 z M 2251.5625 -964.00109 C 2250.2145 -964.00109 2249.1938 -963.68186 2248.498 -963.04406 C 2247.8023 -962.42076 2247.4531 -961.6685 2247.4531 -960.7843 C 2247.4531 -959.9871 2247.7074 -959.3625 2248.2148 -958.9132 C 2248.7366 -958.4638 2249.454 -958.23937 2250.3672 -958.23937 C 2251.3238 -958.23937 2252.1939 -958.44295 2252.9766 -958.84875 C 2253.7594 -959.26915 2254.3678 -959.7899 2254.8027 -960.4132 L 2254.8027 -964.00109 L 2251.5625 -964.00109 z " />
      </g>
    </g>
  </g>
  <defs
     id="defs20">
    <path
       id="path0_fill"
       fill-rule="evenodd"
       d="m 22.4044,44.5283 c 12.3736,0 22.4043,-9.968 22.4043,-22.2641 C 44.8087,9.968 34.778,0 22.4044,0 10.0308,0 0,9.968 0,22.2642 0,34.5603 10.0308,44.5283 22.4044,44.5283 Z" />
    <path
       id="path1_fill"
       d="m 16.8684,47 c -0.174,-0.3914 -0.3262,-0.79 -0.4566,-1.1958 -0.1305,-0.4204 -0.2319,-0.8407 -0.3044,-1.2611 -0.7537,0.8697 -1.6742,1.5727 -2.7613,2.109 -1.0726,0.5363 -2.3047,0.8045 -3.69619,0.8045 -2.30469,0 -4.13829,-0.6233 -5.50081,-1.8699 -1.34802,-1.261 -2.02204,-2.9714 -2.02204,-5.1311 0,-2.2033 0.88419,-3.9064 2.65257,-5.1095 1.76838,-1.2031 4.36296,-1.8046 7.78377,-1.8046 h 3.2396 v -2.3047 c 0,-1.1306 -0.3261,-2.0075 -0.9784,-2.6308 -0.6523,-0.6233 -1.6162,-0.9349 -2.8917,-0.9349 -0.7248,0 -1.3698,0.0869 -1.93511,0.2609 -0.5653,0.1594 -1.02189,0.3551 -1.36977,0.587 l -0.4131,2.5221 H 3.4316 L 3.45335,25.823 c 1.15959,-0.7828 2.48587,-1.4423 3.97884,-1.9786 1.50747,-0.5363 3.14541,-0.8045 4.91381,-0.8045 2.9134,0 5.2761,0.7175 7.088,2.1525 1.8263,1.4205 2.7395,3.4498 2.7395,6.0879 v 9.7188 c 0,0.3624 0,0.703 0,1.0219 0.0145,0.3189 0.0435,0.6233 0.087,0.9132 l 1.935,0.2609 V 47 Z m -5.5008,-4.2398 c 0.9566,0 1.8263,-0.2029 2.609,-0.6087 0.7828,-0.4204 1.3915,-0.9422 1.8264,-1.5655 v -3.5875 h -3.2396 c -1.348,0 -2.3699,0.3189 -3.06568,0.9567 -0.69576,0.6233 -1.04364,1.377 -1.04364,2.2612 0,0.7972 0.25366,1.4205 0.76099,1.8698 0.52181,0.4494 1.23933,0.674 2.15253,0.674 z" />
    <path
       id="path2_fill"
       d="m 13.0802,37 c -0.1392,-0.3131 -0.2609,-0.632 -0.3653,-0.9567 -0.1043,-0.3362 -0.1855,-0.6725 -0.2435,-1.0088 -0.603,0.6957 -1.3393,1.2581 -2.209,1.6872 -0.85811,0.429 -1.84377,0.6436 -2.95698,0.6436 -1.84375,0 -3.31063,-0.4987 -4.40064,-1.4959 -1.07842,-1.0088 -1.61763,-2.3772 -1.61763,-4.105 0,-1.7625 0.70735,-3.1251 2.12205,-4.0875 1.4147,-0.9625 3.49037,-1.4437 6.227,-1.4437 h 2.5917 v -1.8438 c 0,-0.9044 -0.2609,-1.606 -0.7827,-2.1046 -0.5219,-0.4986 -1.293,-0.7479 -2.31342,-0.7479 -0.57979,0 -1.09581,0.0695 -1.54805,0.2087 -0.45224,0.1275 -0.81752,0.2841 -1.09582,0.4696 L 6.15743,24.2329 H 2.33078 l 0.01739,-4.1745 c 0.92768,-0.6262 1.9887,-1.1538 3.18308,-1.5829 1.20598,-0.429 2.51631,-0.6435 3.93101,-0.6435 2.33074,0 4.22094,0.574 5.67044,1.7219 1.4611,1.1364 2.1916,2.7599 2.1916,4.8703 v 7.7751 c 0,0.2899 0,0.5624 0,0.8175 0.0116,0.2551 0.0348,0.4986 0.0696,0.7305 l 1.548,0.2088 V 37 Z M 8.67954,33.6082 c 0.76533,0 1.46106,-0.1623 2.08726,-0.487 0.6262,-0.3363 1.1132,-0.7538 1.4611,-1.2524 v -2.87 H 9.6362 c -1.07842,0 -1.89593,0.2551 -2.45253,0.7654 -0.55661,0.4986 -0.83491,1.1016 -0.83491,1.8089 0,0.6378 0.20293,1.1364 0.60879,1.4959 0.41745,0.3595 0.99145,0.5392 1.72199,0.5392 z M 20.2986,21.2412 v -3.0614 h 7.375 l 0.2436,2.1917 c 0.5566,-0.8118 1.2233,-1.4379 2.0003,-1.8786 0.7769,-0.4406 1.6814,-0.6609 2.7134,-0.6609 2.3308,0 4.1397,0.9102 5.4269,2.7308 1.2871,1.8206 1.9307,4.2151 1.9307,7.1837 v 0.3652 c 0,2.7831 -0.6436,5.0211 -1.9307,6.7141 -1.2872,1.693 -3.0845,2.5395 -5.3921,2.5395 -0.9857,0 -1.8612,-0.1798 -2.6265,-0.5392 -0.7653,-0.3711 -1.4205,-0.9103 -1.9655,-1.6177 v 5.4443 l 2.4525,0.5218 v 3.0613 h -9.9666 v -3.0613 l 2.4525,-0.5218 V 21.763 Z m 14.6109,6.5053 c 0,-1.7742 -0.2957,-3.2121 -0.8871,-4.3137 -0.5914,-1.1016 -1.4959,-1.6524 -2.7134,-1.6524 -0.7654,0 -1.4205,0.1565 -1.9655,0.4696 -0.5335,0.3131 -0.9567,0.7595 -1.2698,1.3393 v 8.2447 c 0.3131,0.5334 0.7363,0.9393 1.2698,1.2176 0.545,0.2783 1.2117,0.4174 2.0003,0.4174 1.2291,0 2.1278,-0.4812 2.696,-1.4436 0.5798,-0.9625 0.8697,-2.267 0.8697,-3.9137 z m 16.3502,9.6188 c -2.7134,0 -4.8818,-0.8697 -6.5053,-2.6091 -1.6234,-1.7394 -2.4351,-3.9484 -2.4351,-6.6271 v -0.6957 c 0,-2.7946 0.7653,-5.0964 2.296,-6.9054 1.5422,-1.809 3.6063,-2.7076 6.1922,-2.696 2.5395,0 4.5108,0.7653 5.9139,2.2959 1.4031,1.5307 2.1047,3.6006 2.1047,6.2097 v 2.7656 H 47.5896 l -0.0348,0.1043 c 0.0928,1.2408 0.5045,2.2612 1.235,3.0614 0.7421,0.8001 1.7452,1.2001 3.0091,1.2001 1.1248,0 2.0583,-0.1101 2.8005,-0.3304 0.7421,-0.232 1.5538,-0.5914 2.4351,-1.0785 l 1.3741,3.1309 c -0.7769,0.6146 -1.7858,1.1306 -3.0265,1.5481 -1.2292,0.4174 -2.6033,0.6262 -4.1224,0.6262 z M 50.8075,21.7456 c -0.9393,0 -1.6814,0.3595 -2.2264,1.0784 -0.545,0.7189 -0.8813,1.664 -1.0089,2.8352 l 0.0522,0.087 h 6.227 v -0.4523 c 0,-1.0784 -0.2551,-1.9365 -0.7653,-2.5743 -0.4986,-0.6493 -1.2582,-0.974 -2.2786,-0.974 z m 10.0536,-0.5044 v -3.0614 h 7.375 l 0.2436,2.1917 c 0.5566,-0.8118 1.2233,-1.4379 2.0003,-1.8786 0.7769,-0.4406 1.6814,-0.6609 2.7134,-0.6609 2.3308,0 4.1397,0.9102 5.4269,2.7308 1.2871,1.8206 1.9307,4.2151 1.9307,7.1837 v 0.3652 c 0,2.7831 -0.6436,5.0211 -1.9307,6.7141 -1.2872,1.693 -3.0845,2.5395 -5.3921,2.5395 -0.9857,0 -1.8612,-0.1798 -2.6265,-0.5392 -0.7653,-0.3711 -1.4205,-0.9103 -1.9655,-1.6177 v 5.4443 l 2.4525,0.5218 v 3.0613 h -9.9666 v -3.0613 l 2.4525,-0.5218 V 21.763 Z m 14.6109,6.5053 c 0,-1.7742 -0.2957,-3.2121 -0.8871,-4.3137 -0.5914,-1.1016 -1.4959,-1.6524 -2.7134,-1.6524 -0.7654,0 -1.4205,0.1565 -1.9655,0.4696 -0.5335,0.3131 -0.9567,0.7595 -1.2698,1.3393 v 8.2447 c 0.3131,0.5334 0.7363,0.9393 1.2698,1.2176 0.545,0.2783 1.2117,0.4174 2.0003,0.4174 1.2291,0 2.1278,-0.4812 2.696,-1.4436 0.5798,-0.9625 0.8697,-2.267 0.8697,-3.9137 z m 16.3502,9.6188 c -2.7134,0 -4.8818,-0.8697 -6.5053,-2.6091 -1.6234,-1.7394 -2.4351,-3.9484 -2.4351,-6.6271 v -0.6957 c 0,-2.7946 0.7653,-5.0964 2.296,-6.9054 1.5422,-1.809 3.6063,-2.7076 6.1922,-2.696 2.5395,0 4.5108,0.7653 5.9139,2.2959 1.4031,1.5307 2.1047,3.6006 2.1047,6.2097 v 2.7656 H 88.1521 l -0.0348,0.1043 c 0.0928,1.2408 0.5045,2.2612 1.235,3.0614 0.7421,0.8001 1.7452,1.2001 3.0091,1.2001 1.1248,0 2.0583,-0.1101 2.8005,-0.3304 0.7421,-0.232 1.5538,-0.5914 2.4351,-1.0785 l 1.3741,3.1309 c -0.7769,0.6146 -1.7858,1.1306 -3.0265,1.5481 -1.2292,0.4174 -2.6033,0.6262 -4.1224,0.6262 z M 91.37,21.7456 c -0.9393,0 -1.6814,0.3595 -2.2264,1.0784 -0.545,0.7189 -0.8813,1.664 -1.0089,2.8352 l 0.0522,0.087 h 6.227 v -0.4523 c 0,-1.0784 -0.2551,-1.9365 -0.7653,-2.5743 -0.4986,-0.6493 -1.2582,-0.974 -2.2786,-0.974 z m 10.819,12.2105 2.435,-0.5218 V 21.763 l -2.696,-0.5218 v -3.0614 h 7.427 l 0.226,2.7483 c 0.441,-0.9741 1.009,-1.7336 1.705,-2.2786 0.696,-0.545 1.502,-0.8175 2.418,-0.8175 0.266,0 0.545,0.0231 0.835,0.0695 0.301,0.0348 0.55,0.0812 0.748,0.1392 l -0.54,4.6268 -2.087,-0.0522 c -0.742,0 -1.357,0.1449 -1.844,0.4348 -0.487,0.2899 -0.858,0.7016 -1.113,1.235 v 9.1492 l 2.435,0.5218 V 37 h -9.949 z m 14.454,0 2.453,-0.5218 V 21.763 l -2.714,-0.5218 v -3.0614 h 7.793 v 15.2545 l 2.435,0.5218 V 37 h -9.967 z m 7.532,-20.2813 h -5.079 V 9.86557 h 5.079 z M 140.264,37 c -0.139,-0.3131 -0.261,-0.632 -0.365,-0.9567 -0.104,-0.3362 -0.186,-0.6725 -0.244,-1.0088 -0.603,0.6957 -1.339,1.2581 -2.209,1.6872 -0.858,0.429 -1.843,0.6436 -2.957,0.6436 -1.843,0 -3.31,-0.4987 -4.4,-1.4959 -1.079,-1.0088 -1.618,-2.3772 -1.618,-4.105 0,-1.7625 0.707,-3.1251 2.122,-4.0875 1.415,-0.9625 3.491,-1.4437 6.227,-1.4437 h 2.592 v -1.8438 c 0,-0.9044 -0.261,-1.606 -0.783,-2.1046 -0.522,-0.4986 -1.293,-0.7479 -2.313,-0.7479 -0.58,0 -1.096,0.0695 -1.548,0.2087 -0.453,0.1275 -0.818,0.2841 -1.096,0.4696 l -0.331,2.0177 h -3.826 l 0.017,-4.1745 c 0.928,-0.6262 1.989,-1.1538 3.183,-1.5829 1.206,-0.429 2.517,-0.6435 3.931,-0.6435 2.331,0 4.221,0.574 5.671,1.7219 1.461,1.1364 2.191,2.7599 2.191,4.8703 v 7.7751 c 0,0.2899 0,0.5624 0,0.8175 0.012,0.2551 0.035,0.4986 0.07,0.7305 l 1.548,0.2088 V 37 Z m -4.4,-3.3918 c 0.765,0 1.461,-0.1623 2.087,-0.487 0.626,-0.3363 1.113,-0.7538 1.461,-1.2524 v -2.87 h -2.592 c -1.078,0 -1.896,0.2551 -2.452,0.7654 -0.557,0.4986 -0.835,1.1016 -0.835,1.8089 0,0.6378 0.203,1.1364 0.609,1.4959 0.417,0.3595 0.991,0.5392 1.722,0.5392 z" />
  </defs>
</svg>
